<?xml version="1.0" encoding="UTF-8"?>
<svg width="408px" height="101px" viewBox="0 0 408 101" version="1.1" xmlns="http://www.w3.org/2000/svg" xmlns:xlink="http://www.w3.org/1999/xlink">
    <title>编组 18</title>
    <g id="页面-1" stroke="none" stroke-width="1" fill="none" fill-rule="evenodd">
        <g id="编组-18" transform="translate(0.000000, -0.000000)" fill="#242933">
            <path d="M61.3130194,99 L61.3130194,20.2753623 L102,20.2753623 L102,2 L0,2 L0,20.2753623 L40.6869806,20.2753623 L40.6869806,99 L61.3130194,99 Z M160,99 L160,8.17948718 C160,2.72649573 157.559387,0 152.678161,0 C150.143678,0 146.858238,0.564102564 142.821839,1.69230769 L142.821839,1.69230769 L111,9.16666667 L111,26.9358974 L139.442529,21.1538462 L139.442529,99 L160,99 Z" id="T1" fill-rule="nonzero"></path>
            <g id="编组-11" transform="translate(189.000000, 1.000000)">
                <path d="M111.756222,34.0107163 C110.422782,35.9500356 108.67007,39.6612925 109.653159,44.9376647 C111.124442,52.8344268 117.937141,58.8909518 126.949585,62.272255 C127.204212,62.3684514 127.381302,62.0134867 127.152521,61.8672682 C123.368539,59.4613964 121.301851,55.5702522 121.301851,49.6358966 C121.301851,38.2212325 129.972559,34.7398849 147.717932,34.7398849 C156.622208,34.7398849 164.482131,35.5941089 169.989151,36.4031206 C173.617103,36.9360486 176.865986,34.0905593 176.865986,30.3937318 L176.865986,25.5916078 C173.091576,24.5392193 163.536375,22.5960521 147.717932,22.5960521 C130.044352,22.5960521 117.878749,25.9369529 111.756222,34.0107163" id="Fill-17"></path>
                <path d="M143.141449,65.1795987 C155.507116,65.1795987 162.412668,63.9656002 165.222176,62.9132116 L165.222176,55.7071397 L154.919368,55.7071397 C151.513497,55.7071397 148.752808,52.924178 148.752808,49.4899667 L148.752808,44.2924755 L174.100606,44.2924755 C176.82492,44.2924755 179.03328,46.5194221 179.03328,49.2658291 L179.03328,49.5553803 L179.03328,55.7071397 L179.03328,74.8944726 C179.03328,76.6760298 177.74866,77.4042365 176.624856,77.4042365 C175.66187,77.4042365 174.857786,76.9992497 173.894799,76.5952248 L166.587205,73.0330723 C162.652936,74.4904477 156.630919,77.4042365 141.937237,77.4042365 C118.812157,77.4042365 107.169209,69.065933 107.169209,49.6361852 C107.169209,48.841603 107.200798,48.0739558 107.247703,47.3188141 C108.320772,50.6933836 110.326197,54.3613521 114.351404,57.6060565 C120.801308,62.8054717 130.677186,65.1795987 143.141449,65.1795987" id="Fill-18"></path>
                <path d="M66.5030313,42.6467476 C61.0888641,42.6467476 53.25,43.2152683 48.7251117,43.5404121 L50.0977983,35.0126017 L88.2841417,35.0126017 C92.0537652,35.0126017 95.1102425,31.9420128 95.1102425,28.1537988 L95.1102425,23.5623449 L42.0368539,23.5623449 C40.3923101,23.5623449 38.9880345,24.7542182 38.7123484,26.3837851 L35.4720804,45.570156 C34.5818443,50.3626604 36.2799936,53.8526656 41.8559349,53.6092887 C52.3616784,53.2851069 56.9679324,53.2043019 64.8872049,53.2043019 C79.2716975,53.2043019 83.9583599,53.7718606 83.9583599,59.4570675 C83.9583599,64.8979356 79.51388,65.8733671 64.726388,65.8733671 C54.2196873,65.8733671 41.4519783,63.9234661 34.66321,62.3814379 L34.66321,68.168613 C34.66321,71.6422648 37.1300255,74.6291629 40.5311104,75.2477057 C46.3300893,76.3010562 54.9213465,77.4044289 64.8872049,77.4044289 C87.5145182,77.4044289 98.8281749,72.2877427 98.8281749,59.4570675 C98.8281749,43.5404121 83.5544033,42.6467476 66.5030313,42.6467476" id="Fill-19"></path>
                <path d="M169.588066,0 L49.2750479,0 C25.5421187,0 0,15.6684687 0,50.0692614 C0,69.8703273 8.52329292,81.5668469 15.6729419,87.8927218 C24.4987237,95.7000212 36.4307594,100 49.2750479,100 L169.588066,100 C193.386088,100 219,84.3757816 219,50.0692614 C219,30.2133636 210.453733,18.4841372 203.283982,12.140947 C194.435227,4.3115224 182.467773,0 169.588066,0 M169.588066,9.05304269 C189.699745,9.05304269 209.992342,21.7355754 209.992342,50.0692614 C209.992342,78.307713 189.699745,90.9479193 169.588066,90.9479193 L49.2750479,90.9479193 C29.232291,90.9479193 9.00861519,78.307713 9.00861519,50.0692614 C9.00861519,21.7355754 29.232291,9.05304269 49.2750479,9.05304269 L169.588066,9.05304269" id="Fill-20"></path>
            </g>
        </g>
    </g>
</svg>