<?xml version="1.0" encoding="UTF-8"?>
<svg width="382px" height="68px" viewBox="0 0 382 68" version="1.1" xmlns="http://www.w3.org/2000/svg" xmlns:xlink="http://www.w3.org/1999/xlink">
    <title>编组 18</title>
    <defs>
        <filter id="filter-1">
            <feColorMatrix in="SourceGraphic" type="matrix" values="0 0 0 0 1.000000 0 0 0 0 1.000000 0 0 0 0 1.000000 0 0 0 1.000000 0"></feColorMatrix>
        </filter>
    </defs>
    <g id="页面-1" stroke="none" stroke-width="1" fill="none" fill-rule="evenodd">
        <g id="in-pc" transform="translate(-1480.000000, -3141.000000)">
            <g id="编组-18" transform="translate(1120.000000, 2690.000000)" filter="url(#filter-1)">
                <g transform="translate(360.000000, 451.000000)">
                    <path d="M45.5791167,66.4186047 L45.5791167,42.7389282 C48.3240775,41.6479946 50.7179387,39.5623862 52.7607002,36.4821031 L52.7607002,36.4821031 L77.2738386,0 L61.1870916,0 L41.7489388,29.3589484 C40.919067,30.6423997 39.8976862,31.2841254 38.6847965,31.2841254 C37.4719069,31.2841254 36.418608,30.6423997 35.5248998,29.3589484 L35.5248998,29.3589484 L15.9909926,0 L0,0 L24.6088928,36.4821031 C26.6516544,39.4982137 28.9816793,41.5517358 31.5989675,42.6426694 L31.5989675,42.6426694 L31.5989675,66.4186047 L45.5791167,66.4186047 Z M107.990471,66.4186047 L142.436092,14.9201213 C144.552862,11.9040108 145.611247,9.20876306 145.611247,6.83437816 C145.611247,4.71668352 144.969801,3.08028311 143.686911,1.92517695 C142.275731,0.641725649 140.158961,0 137.336601,0 L137.336601,0 L80.9535452,0 L80.9535452,12.4173913 L128.773304,12.4173913 L91.0563111,66.4186047 L107.990471,66.4186047 Z M180.223149,68 C191.911236,68 200.437792,66.4621568 205.802816,63.3864705 C211.934272,59.8622467 215,53.9992197 215,45.7973895 C215,37.9159434 212.030076,32.3092236 206.090228,28.9772301 C201.427767,26.3500813 194.721487,25.036507 185.971389,25.036507 C180.606365,25.036507 174.921994,25.356891 168.918277,25.997659 L168.918277,25.997659 L170.642749,12.4454162 L210.113996,12.4454162 L210.113996,0.527131783 L159.242073,0.527131783 L155.409913,31.2839948 C155.090567,33.6548363 155.409913,35.3528715 156.367953,36.3781002 C157.389863,37.4674058 159.210138,37.9159434 161.828781,37.723713 C170.131794,37.082945 176.933878,36.762561 182.235033,36.762561 C189.005182,36.762561 193.699578,37.4353674 196.31822,38.7809801 C199.064602,40.1906697 200.437792,42.6896648 200.437792,46.2779655 C200.437792,49.930343 198.904928,52.4934149 195.8392,53.9671813 C192.837342,55.3768708 187.536187,56.0817156 179.935737,56.0817156 C169.461166,55.8254084 160.99848,54.8642564 154.547677,53.1982597 L154.547677,53.1982597 L154.547677,65.3087745 C159.529485,66.7825408 168.087976,67.679616 180.223149,68 Z" id="Y75" fill="#242933" fill-rule="nonzero"></path>
                    <g id="编组-11" transform="translate(235.000000, 1.000000)" fill="#242933">
                        <path d="M75.0144504,22.7871799 C74.1194019,24.0865238 72.9429238,26.573066 73.6028053,30.1082354 C74.5903786,35.3990659 79.1632864,39.4569377 85.2127353,41.7224109 C85.3836491,41.7868625 85.5025177,41.5490361 85.3489523,41.4510697 C82.8090191,39.8391356 81.4217902,37.232069 81.4217902,33.2560508 C81.4217902,25.6082258 87.2418547,23.2757229 99.1531327,23.2757229 C105.129975,23.2757229 110.405814,23.848053 114.102307,24.3900908 C116.537507,24.7471526 118.718265,22.8406747 118.718265,20.3638003 L118.718265,17.1463772 C116.184757,16.4412769 109.770992,15.1393549 99.1531327,15.1393549 C87.2900447,15.1393549 79.1240919,17.3777584 75.0144504,22.7871799" id="Fill-17"></path>
                        <path d="M96.0812463,43.6703311 C104.381488,43.6703311 109.016722,42.8569521 110.902557,42.1518518 L110.902557,37.3237836 L103.986973,37.3237836 C101.700841,37.3237836 99.8477752,35.4591993 99.8477752,33.1582777 L99.8477752,29.6759586 L116.862051,29.6759586 C118.6907,29.6759586 120.173024,31.1680128 120.173024,33.0081055 L120.173024,33.2021048 L120.173024,37.3237836 L120.173024,50.1792966 C120.173024,51.37294 119.310744,51.8608384 118.55641,51.8608384 C117.910022,51.8608384 117.370294,51.5894973 116.723906,51.3188006 L111.818809,48.9321585 C109.177998,49.9086 105.135822,51.8608384 95.2729397,51.8608384 C79.7506259,51.8608384 71.9354962,46.2741751 71.9354962,33.2562441 C71.9354962,32.723874 71.9566998,32.2095504 71.9881839,31.7036054 C72.7084635,33.964567 74.0545703,36.4221059 76.7564218,38.5960579 C81.0858096,42.079666 87.7148233,43.6703311 96.0812463,43.6703311" id="Fill-18"></path>
                        <path d="M44.639021,28.5733209 C41.004854,28.5733209 35.7431507,28.9542298 32.7058969,29.1720761 L33.6272893,23.4584432 L59.2592184,23.4584432 C61.7895136,23.4584432 63.8411217,21.4011486 63.8411217,18.8630452 L63.8411217,15.7867711 L28.2165183,15.7867711 C27.1126465,15.7867711 26.1700505,16.5853262 25.985001,17.677136 L23.8100266,30.5320045 C23.2124708,33.7429825 24.3523245,36.081286 28.0950796,35.9182234 C35.14688,35.7010216 38.2387491,35.6468823 43.5544252,35.6468823 C53.2097696,35.6468823 56.3556115,36.0271466 56.3556115,39.8362353 C56.3556115,43.4816169 53.3723304,44.1351559 43.4464796,44.1351559 C36.3940367,44.1351559 27.8239306,42.8287223 23.2670861,41.7955634 L23.2670861,45.6729707 C23.2670861,48.0003174 24.9228938,50.0015391 27.2058138,50.4159628 C31.0982791,51.1217077 36.8650134,51.8609674 43.5544252,51.8609674 C58.7426218,51.8609674 66.3367201,48.4327876 66.3367201,39.8362353 C66.3367201,29.1720761 56.0844625,28.5733209 44.639021,28.5733209" id="Fill-19"></path>
                        <path d="M113.833086,0 L33.0750321,0 C17.1447098,0 0,10.4978741 0,33.5464051 C0,46.8131193 5.72111442,54.6497874 10.5201939,58.8881236 C16.4443488,64.1190142 24.4535234,67 33.0750321,67 L113.833086,67 C129.8071,67 147,56.5317737 147,33.5464051 C147,20.2429536 141.263465,12.3843719 136.450892,8.13443446 C130.511316,2.88872001 122.478368,0 113.833086,0 M113.833086,6.0655386 C127.332705,6.0655386 140.953764,14.5628355 140.953764,33.5464051 C140.953764,52.4661677 127.332705,60.9351059 113.833086,60.9351059 L33.0750321,60.9351059 C19.6216748,60.9351059 6.04687869,52.4661677 6.04687869,33.5464051 C6.04687869,14.5628355 19.6216748,6.0655386 33.0750321,6.0655386 L113.833086,6.0655386" id="Fill-20"></path>
                    </g>
                </g>
            </g>
        </g>
    </g>
</svg>